# File produced by Open Asset Import Library (http://www.assimp.sf.net)
# (assimp v5.0.1588609223)

mtllib result.mtl

# 20 vertex positions
v  -35.682209 -93.417236 0
v  35.682209 -93.417236 0
v  -57.735027 -57.735027 57.735027
v  57.735027 -57.735027 -57.735027
v  35.682209 93.417236 0
v  -35.682209 93.417236 0
v  57.735027 57.735027 57.735027
v  -57.735027 57.735027 -57.735027
v  -93.417236 0 35.682209
v  -93.417236 0 -35.682209
v  0 -35.682209 -93.417236
v  0 35.682209 -93.417236
v  93.417236 0 -35.682209
v  93.417236 0 35.682209
v  0 -35.682209 93.417236
v  0 35.682209 93.417236
v  57.735027 -57.735027 57.735027
v  -57.735027 -57.735027 -57.735027
v  -57.735027 57.735027 57.735027
v  57.735027 57.735027 -57.735027

# 38 UV coordinates
vt 0.81699991 0.65200001 0
vt 0.704 0.56999999 0
vt 0.93000001 0.56999999 0
vt 0.59099996 0.65200001 0
vt 0.296 0.43700004 0
vt 0.183 0.35500002 0
vt 0.40899998 0.35500002 0
vt 0.07 0.43700004 0
vt 1 0.78499997 0
vt 0.88700002 0.86699998 0
vt 0.95700002 0.65200001 0
vt 0 0.22300005 0
vt 0.113 0.14100003 0
vt 0.043000001 0.35500002 0
vt 0.63399994 0.78499997 0
vt 0.52200001 0.86699998 0
vt 0.59100002 0.91799998 0
vt 0.704 1 0
vt 0.47799999 0.56999999 0
vt 0.52200001 0.43800008 0
vt 0.40900001 0.090000033 0
vt 0.366 0.22300005 0
vt 0.296 0.0080000162 0
vt 0.47799999 0.14100003 0
vt 0.74699998 0.43800008 0
vt 0.77399993 0.78499997 0
vt 0.22599998 0.22300005 0
vt 0.25299999 0.56999999 0
vt 0.40900001 0.78499997 0
vt 0.66100001 0.43800008 0
vt 0.33899999 0.56999999 0
vt 0.59100002 0.22300005 0
vt 0.183 0.090000033 0
vt 0.81699997 0.91799998 0
vt 0.113 0.56999999 0
vt 0.45199999 0.65200001 0
vt 0.54799998 0.35500002 0
vt 0.88700002 0.43800008 0

# 36 vertex normals
vn 0 -0.85065085 0.52573109
vn 0 -0.85065079 0.52573103
vn 0 -0.85065085 -0.52573109
vn 0 -0.85065079 -0.52573103
vn 0 0.85065085 0.52573109
vn 0 0.85065079 0.52573103
vn 0 0.85065085 -0.52573109
vn 0 0.85065079 -0.52573103
vn -0.85065085 -0.52573109 -0
vn -0.85065079 -0.52573103 -0
vn -0.85065085 0.52573109 0
vn -0.85065079 0.52573103 0
vn 0.52573109 0 -0.85065085
vn 0.52573103 0 -0.85065079
vn -0.52573109 0 -0.85065085
vn -0.52573103 0 -0.85065079
vn 0.85065085 -0.52573109 0
vn 0.85065079 -0.52573103 0
vn 0.85065085 0.52573109 0
vn 0.85065079 0.52573103 0
vn -0.52573109 0 0.85065085
vn -0.52573103 0 0.85065079
vn 0.52573109 0 0.85065085
vn 0.52573103 0 0.85065079
vn -0.85065085 -0.52573115 0
vn 0.85065085 -0.52573115 0
vn 0.85065085 0.52573115 0
vn -0.85065085 0.52573115 0
vn -0.52573115 0 0.85065085
vn -0.52573115 0 -0.85065085
vn 0 -0.85065085 -0.52573115
vn 0 0.85065085 -0.52573115
vn 0.52573115 0 -0.85065085
vn 0.52573115 0 0.85065085
vn 0 -0.85065085 0.52573115
vn 0 0.85065085 0.52573115

f  1/1/1 2/2/1 3/3/2
f  2/2/3 1/1/3 4/4/4
f  5/5/5 6/6/5 7/7/6
f  6/6/7 5/5/7 8/8/8
f  9/9/9 10/10/9 3/11/10
f  10/12/11 9/13/11 8/14/12
f  11/15/13 12/16/13 4/4/14
f  12/17/15 11/15/15 8/18/16
f  13/19/17 14/20/17 4/4/18
f  14/20/19 13/19/19 7/7/20
f  15/21/21 16/22/21 3/23/22
f  16/22/23 15/24/23 7/7/24
f  2/2/1 17/25/1 3/3/2
f  1/1/3 18/26/3 4/4/4
f  6/6/5 19/27/5 7/7/6
f  5/5/7 20/28/7 8/8/8
f  10/10/9 18/26/9 3/11/10
f  9/13/11 19/27/11 8/14/12
f  12/16/13 20/29/13 4/4/14
f  11/15/15 18/26/15 8/18/16
f  14/20/17 17/30/17 4/4/18
f  13/19/19 20/31/19 7/7/20
f  16/22/21 19/27/21 3/23/22
f  15/24/23 17/32/23 7/7/24
f  1/1/25 3/11/10 18/26/9
f  2/2/26 4/4/18 17/30/17
f  5/5/27 7/7/20 20/31/19
f  6/6/28 8/14/12 19/27/11
f  9/33/29 3/23/22 19/27/21
f  10/34/30 8/18/16 18/26/15
f  11/15/31 4/4/4 18/26/3
f  12/35/32 8/8/8 20/28/7
f  13/36/33 4/4/14 20/29/13
f  14/37/34 7/7/24 17/32/23
f  15/38/35 3/3/2 17/25/1
f  16/22/36 7/7/6 19/27/5

